<?xml version="1.0" ?><svg enable-background="new 0 0 800 800" id="Layer_1" version="1.1" viewBox="0 0 800 800" xml:space="preserve" xmlns="http://www.w3.org/2000/svg" xmlns:xlink="http://www.w3.org/1999/xlink"><g><path d="M400,640c185.6,0,330.7-78.9,330.7-180.3V340.3C730.7,238.9,585.6,160,400,160S69.3,238.9,69.3,340.3v118.4   C69.3,561.1,214.4,640,400,640z M224,545.1c-11.7-4.3-22.4-9.6-32-14.9c0-1.1,0-1.1,0-2.1v-45.9c10.7,4.3,21.3,8.5,32,12.8V545.1z    M666.7,459.7C666.7,515.2,556.8,576,400,576c-40.5,0-78.9-4.3-112-11.7v-53.3c35.2,6.4,72.5,10.7,112,10.7   c110.9,0,206.9-27.7,266.7-72.5V459.7z M400,224c156.8,0,266.7,61.9,266.7,116.3c0,55.5-109.9,116.3-266.7,116.3   s-266.7-61.9-266.7-116.3S243.2,224,400,224z"/></g></svg>